<svg xmlns="http://www.w3.org/2000/svg" fill="none" viewBox="0 0 244 171" width="244" height="171">
  <g clip-path="url(#clip0)">
    <path fill="#000" d="M91.567 100.581c.721 1.625 2.045 3.671 3.773 4.358 1.84.738 4.09-.098 5.593-1.226a6.654 6.654 0 002.697-4.931 6.664 6.664 0 00-2.027-5.244.752.752 0 00-.98-.067.754.754 0 00-.226.272 5.76 5.76 0 00-4.356-1.61c-4.443.216-6.12 4.706-4.474 8.448z"/>
    <path fill="#838BC5" d="M221.663 151.413c.25 4.424-4.356 5.854-13.012 5.403-7.807-.405-14.315-2.784-14.581-7.202-.266-4.419 5.875-8.371 13.676-8.812 7.802-.441 13.666 6.192 13.917 10.611z"/>
    <path fill="#5C679B" d="M213.708 152.869a45.265 45.265 0 01-19.362-1.979c1.319 3.588 7.301 5.562 14.316 5.926 8.655.451 13.262-.979 13.011-5.403a6.882 6.882 0 00-.327-1.676c-1.697 2.388-4.959 2.845-7.638 3.132z"/>
    <path fill="#838BC5" d="M155.95 151.7c1.887 0 3.416-3.372 3.416-7.53 0-4.159-1.529-7.531-3.416-7.531-1.886 0-3.415 3.372-3.415 7.531 0 4.158 1.529 7.53 3.415 7.53zM178.233 150.697c1.847-.207 3.031-3.189 2.645-6.661-.386-3.472-2.196-6.119-4.043-5.913-1.846.206-3.03 3.188-2.644 6.66.386 3.472 2.196 6.12 4.042 5.914z"/>
    <path fill="#D2E0FF" d="M168.931 94.978l-1.237-.44.046-.236c.199-.969-1.283-1.38-1.477-.41a182.64 182.64 0 00-2.138 12.846c-.107.8.905.938 1.34.431 1.263.512 4.09.569 4.09-.2a77.648 77.648 0 01.844-11.58c.158-.97-1.319-1.385-1.468-.41zM193.952 94.748l1.243-.441c0-.082-.031-.159-.051-.241-.195-.964 1.283-1.379 1.482-.405a182.487 182.487 0 012.137 12.816c.108.804-.904.938-1.344.43-1.258.513-4.09.574-4.09-.2a78.462 78.462 0 00-.844-11.58c-.153-.943 1.324-1.358 1.467-.38z"/>
    <path fill="#000" d="M147.443 93.113a5.752 5.752 0 00-4.351 1.61.768.768 0 00-.554-.411.758.758 0 00-.658.205 6.672 6.672 0 00-1.222 8.009 6.653 6.653 0 001.892 2.167c1.493 1.133 3.753 1.963 5.593 1.23 1.728-.692 3.068-2.732 3.774-4.362 1.646-3.743-.031-8.233-4.474-8.448zM230.947 75.504a5.787 5.787 0 002.48 3.932.763.763 0 00-.185.97.77.77 0 00.241.26 6.64 6.64 0 005.536.89 6.649 6.649 0 004.245-3.674c.792-1.696 1.135-4.1.03-5.74-1.022-1.539-3.302-2.426-5.041-2.79-3.993-.83-8.021 1.748-7.306 6.152z"/>
    <path fill="#D2E0FF" d="M163.142 59.137l-2.727-1.976-6.646 9.219 2.727 1.976 6.646-9.22zM203.476 57.873l-3.175 1.116 3.756 10.734 3.174-1.116-3.755-10.734z"/>
    <path fill="#000" d="M203.559 53.718a4.747 4.747 0 00-3.613-1.79 4.737 4.737 0 00-3.683 1.64c-2.075 2.282-1.477 5.747.721 7.69a.811.811 0 001.309-.42 5.102 5.102 0 003.252-.241c2.72-1.174 3.916-4.43 2.014-6.88zM162.305 59.895a5.1 5.1 0 003.252.24.806.806 0 001.309.416c2.198-1.948 2.796-5.413.721-7.69a4.75 4.75 0 00-3.683-1.641 4.732 4.732 0 00-3.613 1.79c-1.902 2.445-.706 5.7 2.014 6.885zM176.12 87.258a.61.61 0 00-.348-.825 7.983 7.983 0 00-7.986.784c-2.556 1.882-3.257 4.865-.772 7.08 1.795 1.599 5.44 3.03 7.5 1.143 2.189-2.004 3.656-5.685 1.606-8.182zM189.469 95.035c2.045 1.886 5.705.456 7.5-1.138 2.485-2.22 1.774-5.203-.772-7.085a7.982 7.982 0 00-7.986-.784.601.601 0 00-.356.335.61.61 0 00.008.49c-2.05 2.502-.582 6.183 1.606 8.182zM188.329 80.046c-.553-2.989-3.896-5.127-6.718-3.994-7.092 2.86-2.848 8.782-1.887 9.228 1.304.6 2.618 1.317 4.034 1.132a5.518 5.518 0 003.602-2.232 5.538 5.538 0 00.969-4.134zM188.088 51.677c-.281-.61-.562-1.22-.848-1.83a.773.773 0 00-1.023-.287c-1.559-.066-5.486-4.562-6.002-2.624-.097.369-.634 2.916-.701 3.332l-.255 1.574a.793.793 0 00.537.948c.363.097 7.96.354 8.026-.062a.781.781 0 00.266-1.05z"/>
    <path fill="url(#paint0_linear)" d="M199.837 54.517c-1.907-1.984-14.085-2.594-16.872-2.701-2.346-.087-16.973-1.026-18.17 2.276-3.318 9.196 7.403 34.022 21.836 27.815 3.702-1.595 10.466-9.592 12.741-15.917.823-2.338 2.321-9.545.465-11.473z"/>
    <path fill="#838BC5" d="M185.384 54.271a16.481 16.481 0 006.523-1.789c-3.691-.43-7.536-.615-8.962-.666-1.508-.057-8.083-.472-12.914.123 4.964 1.645 10.077 2.665 15.353 2.332z"/>
    <path fill="#D2E0FF" d="M186.222 68.03c5.788-2.143 9.862-7.69 11.994-13.497-3.379 2.517-7.07 4.28-11.498 4.752-6.498.692-12.991-.626-19.111-2.768 1.202 8.324 10.624 14.481 18.615 11.513z" opacity=".43"/>
    <path fill="#838BC5" d="M185.726 73.515c-8.456 1.891-16.836-2.773-20.885-9.95 2.408 10.498 11.064 22.965 21.77 18.362 3.701-1.594 10.465-9.591 12.74-15.917.441-1.324.774-2.682.997-4.06-3.338 5.567-8.374 10.17-14.622 11.565z"/>
    <path fill="#000" d="M156.124 66.215a3.994 3.994 0 00-2.895-2.129 3.978 3.978 0 00-3.429 1.068c-2.275 2.25-2.751 6.762-.292 9.048 2.086 1.933 5.537 1.763 6.959-.846 1.084-2.035 1.104-5.213-.343-7.14z"/>
    <path fill="url(#paint1_linear)" d="M157.315 76.59c-.833-4.1-3.44-9.852-8.849-8.345-4.909 1.364-7.889 7.69-9.679 11.852-2.132 5.003-3.645 12.098-2.418 17.578.455 2.02 2.935 3.414 4.847 3.829 2.552.624 5.205.707 7.791.246 3.467-.712 6.938-2.783 8.043-6.33 1.881-6.055 1.528-12.606.265-18.83z"/>
    <path fill="#000" d="M204.367 66.097a3.99 3.99 0 00-2.45 2.657 4.015 4.015 0 00.691 3.551c1.974 2.522 6.396 3.496 8.932 1.302 2.152-1.86 2.367-5.32-.061-7.028-1.892-1.333-5.036-1.707-7.112-.482z"/>
    <path fill="url(#paint2_linear)" d="M214.781 66.067c-4.172.374-10.148 2.327-9.259 7.889.808 5.039 6.723 8.714 10.67 10.965 4.719 2.686 11.581 4.988 17.148 4.372 2.045-.225 3.712-2.537 4.341-4.398a19.084 19.084 0 001.109-7.735c-.317-3.537-1.978-7.223-5.373-8.715-5.788-2.558-12.322-2.937-18.636-2.378z"/>
    <path fill="#D2E0FF" d="M206.755 69.342c-.159 1.138 1.283 2.133 2.326 2.507 1.452.513 3.282.338 4.79.174 3.472-.369 6.872-1.394 10.226-2.348a174.714 174.714 0 006.999-2.132c-5.179-1.738-10.824-1.963-16.304-1.476-2.715.24-6.197 1.148-8.037 3.275z" opacity=".43"/>
    <path fill="#838BC5" d="M238.79 77.16c-.317-3.537-1.978-7.223-5.373-8.715a28.632 28.632 0 00-5.307-1.722 10.42 10.42 0 014.944 5.946c1.217 3.773 1.467 9.284-2.188 11.421-6.483 3.789-14.382.713-20.502-3.024a41.914 41.914 0 005.828 3.86 35.732 35.732 0 0012.271 4.255l.24.036.593.066.43.036.511.041.879.03h1.304c.317 0 .634-.035.941-.07a3.3 3.3 0 001.109-.334 6.144 6.144 0 002.357-2.266c.36-.564.653-1.168.874-1.8a19.08 19.08 0 001.089-7.76z"/>
    <path fill="#D2E0FF" d="M150.705 68.296c2.464.2 4.177 2.092 5.297 4.342a1.065 1.065 0 000 .139c-.19 6.73-4.285 12.62-5.926 19.023a36.695 36.695 0 00-1.094 10.253c-1.59.293-3.213.357-4.821.189-2.618-11.636-2.848-26.02 6.544-33.946z" opacity=".43"/>
    <path fill="#838BC5" d="M138.45 94.67c3.671 2.938 10.307 3.02 14.469 1.139a10.393 10.393 0 005.342-5.588 28.675 28.675 0 01-1.114 5.48c-1.105 3.548-4.576 5.639-8.042 6.331-2.587.461-5.24.378-7.792-.246-1.912-.415-4.387-1.81-4.842-3.83a21.77 21.77 0 01-.363-6.34 8.2 8.2 0 002.342 3.055z"/>
    <path fill="url(#paint3_linear)" d="M191.059 84.629c-2.004-1.738-13.569-1.446-16.57-.129-2.848 1.251-.762 9.33 1.411 11.094 2.173 1.763 10.961 1.538 12.965 0 1.043-.79 4.765-8.73 2.194-10.965z"/>
    <path fill="#D2E0FF" d="M178.978 84.895c-1.212 2.876.945 4.101 3.66 4.065 3.068-.061 4.54-1.538 3.354-4.49a2.56 2.56 0 01-.189-.99 47.411 47.411 0 00-6.611.123c.037.442-.037.886-.214 1.292z" opacity=".43"/>
    <path fill="#838BC5" d="M191.473 85.12c.782 5.183-3.763 9.059-9.157 8.966-2.633-.046-5.389-.943-7.158-2.993a6.9 6.9 0 01-1.472-5.916c-1.585 2.338.271 8.853 2.198 10.417 2.189 1.778 10.962 1.537 12.966 0 .992-.76 4.32-7.756 2.623-10.473z"/>
    <path fill="#000" d="M171.273 107.681c-1.825-2.512-5.113-3.973-7.444-1.317-1.984 2.265-2.93 6.407-.332 8.535 2.193 1.799 5.797 1.538 7.612-.697 1.457-1.759 1.427-4.793.164-6.521zM201.908 104.959c-7.787-4.747-12.056 5.26-8.82 8.986 2.659 3.076 6.407 1.907 8.738-.717 2.086-2.348 3.425-6.229.082-8.269z"/>
    <path fill="url(#paint4_linear)" d="M180.716 149.952a10.87 10.87 0 00-1.657-2.563c-.884-7.228-1.682-14.482-2.76-21.684-.767-5.126-2.858-13.436-9.249-13.923-6.647-.513-9.714 7.259-10.706 12.559-1.508 7.956-1.283 16.404-1.697 24.457a.653.653 0 00.414.677.768.768 0 001.113.858.769.769 0 00.364-.448c1.094-4.142 8.799-5.177 12.337-5.182 3.303 0 6.534 1.071 8.738 3.378l.26 2.05a.83.83 0 001.061.687.825.825 0 00.396-.256l.067.133c.409.933 1.728.154 1.319-.743z"/>
    <path fill="#D2E0FF" d="M170.107 132.897c.092-6.613 1.253-13.41.241-19.992a6.924 6.924 0 00-3.298-1.123 7.803 7.803 0 00-1.876.087c-2.117 1.861-3.007 4.809-3.676 7.479a38.898 38.898 0 00-1.166 11.447c.24 4.973 1.237 9.858 2.234 14.743a26.655 26.655 0 016.304-.82c.47 0 .93.031 1.396.072-.154-3.958-.215-7.92-.159-11.893z" opacity=".43"/>
    <path fill="#838BC5" d="M180.716 149.952c-2.26-4.911-7.597-6.997-12.751-6.736-4.203.21-11.626 1.41-12.909 6.28-.092.348-.691 6.489 2.045 8.202 3.267 2.05 18.288 1.599 21.248-.821 2.96-2.419 2.694-6.207 2.367-6.925z"/>
    <path fill="#5C679B" d="M160.173 154.986c-1.769-.513-3.747-1.261-5.204-2.512.112 1.933.593 4.265 2.106 5.213 3.267 2.051 18.288 1.6 21.248-.82a6.887 6.887 0 002.188-3.173c-6.554 2.086-13.661 3.235-20.338 1.292z"/>
    <path fill="url(#paint5_linear)" d="M211.55 120.235c-1.309-4.849-5.036-12.908-11.329-10.329-2.976 1.22-5.323 4.142-7.209 6.628a46.914 46.914 0 00-5.839 10.324c-3.313 7.931-4.749 16.455-6.166 24.883a.756.756 0 00.205.682.61.61 0 00.368.774c2.929 1.307 5.961 1.625 9.141 1.722 2.557.082 5.476.236 7.613-1.42 1.958-1.538 2.556-3.957 3.425-6.151a9.739 9.739 0 013.544-4.566 9.704 9.704 0 015.501-1.745c.71-.102 2.464-14.461.746-20.802z"/>
    <path fill="#D2E0FF" d="M211.55 120.235c-1.309-4.849-5.036-12.907-11.329-10.329-2.976 1.22-5.323 4.142-7.209 6.628-.46.6-.895 1.22-1.314 1.846 2.945-2.102 6.585-3.189 10.092-1.764 3.758 1.538 6.11 5.296 6.969 9.135 1.16 5.178.511 10.447-.486 15.656a12.716 12.716 0 012.531-.364c.71-.108 2.464-14.467.746-20.808z" opacity=".43"/>
    <path fill="#838BC5" d="M190.711 150.634c2.711 0 4.908-2.915 4.908-6.511 0-3.595-2.197-6.51-4.908-6.51-2.711 0-4.908 2.915-4.908 6.51 0 3.596 2.197 6.511 4.908 6.511z"/>
    <path fill="url(#paint6_linear)" d="M209.791 24.406c-2.157-7.377-6.646-14.297-13.967-17.173-8.549-3.357-19.822-3.132-27.619 2.143-6.191 4.193-9.571 10.955-11.36 18.044a.422.422 0 00-.102.226c-.481 3.932 1.089 8.253 3.962 11.277 2.122 2.225 5.143 3.748 7.853 5.127 3.211 1.62 5.828 2.993 9.28 3.993 5.393 1.538 14.499 3.783 20.128 3.414 3.482-.23 9.714-2.927 11.493-6.951.159-.108 2.526-12.59.332-20.1z"/>
    <path fill="url(#paint7_linear)" d="M172.536 25.887C169.903 21.72 159.243 4.931 155.71.257a.426.426 0 00-.517-.207.426.426 0 00-.168.109c-1.483 1.425-2.239 2.179-3.732 5.244-.194.4 4.683 23.58 9.008 28.84 2.224 2.722 7.546 3.937 10.338 2.476 4.213-2.235 4.151-7.264 1.897-10.832z"/>
    <path fill="#D2E0FF" d="M152.775 4.204c1.458-2.312 1.989-4.286 3.952-1.108 1.769 2.856 3.124 5.398 4.602 7.997 1.682 2.943 3.231 5.777 4.934 8.715 2.556 4.408 7.551 11.41 6.62 14.943 2.005-3.076 1.023-6.664-.363-8.864-2.633-4.167-13.292-20.956-16.825-25.63a.419.419 0 00-.318-.227.422.422 0 00-.367.129c-1.483 1.425-2.24 2.179-3.733 5.244a4.6 4.6 0 00.128 1.025c.399-.79.9-1.481 1.37-2.224z" opacity=".43"/>
    <path fill="#838BC5" d="M186.018 17.89c1.058 1.651 1.963 5.127 2.265 8.366.076.79 3.609.344 3.609.344s-1.191-7.218-3.717-10.345c-1.661-2.05-3.64-3.978-6.063-5.044-5.568-2.445-12.189-1.158-16.928 2.44-.977.738 12.311-9.037 20.834 4.24z" opacity=".46"/>
    <path fill="#838BC5" d="M163.604 25.375a4.149 4.149 0 00-2.715 2.696c-.864 2.686 1.002 5.31 3.467 6.208 7.464 2.727 6.533-10.99-.752-8.904z"/>
    <path fill="#000" d="M210.4 27.005h-7.245a75.834 75.834 0 01-8.364-.625c-6.36-.698-10.174-1.354-16.555-1.81a.775.775 0 00-.879.85c.588 3.051 1.125 6.111 1.769 9.146.414 1.958.859 4.137 2.117 5.746 1.257 1.61 3.548 2.118 5.368 2.748 4.601 1.61 9.468 2.143 14.913 3.117.471.082 3.973-1.415 5.583-2.727 1.611-1.313 3.068-2.866 3.344-4.327.475-2.501.169-.646.22-3.193a87.72 87.72 0 00-.271-8.925z"/>
    <path fill="url(#paint8_linear)" d="M183.799 31.962c4.09 3.27 9.366 6.756 14.453 3.414.767-.518-15.22-4.034-14.453-3.414z"/>
    <path fill="#D6D6D6" d="M85.734 151.116c.25 4.423-4.356 5.854-13.012 5.408-7.807-.41-14.315-2.784-14.581-7.208s5.874-8.366 13.676-8.812c7.802-.446 13.666 6.193 13.917 10.612z"/>
    <path fill="#BCBCBC" d="M77.768 152.571a45.247 45.247 0 01-19.361-1.978c1.319 3.588 7.3 5.562 14.315 5.931 8.656.446 13.262-.985 13.012-5.409a6.924 6.924 0 00-.328-1.676c-1.687 2.389-4.949 2.845-7.638 3.132z"/>
    <path fill="#D6D6D6" d="M20.021 151.403c1.886 0 3.415-3.372 3.415-7.531s-1.529-7.53-3.415-7.53c-1.886 0-3.415 3.371-3.415 7.53 0 4.159 1.529 7.531 3.415 7.531zM42.305 150.392c1.846-.207 3.03-3.189 2.645-6.661-.387-3.472-2.196-6.119-4.043-5.913-1.846.206-3.03 3.188-2.644 6.66.386 3.473 2.195 6.12 4.042 5.914z"/>
    <path fill="#EFEFEF" d="M33.002 94.681l-1.237-.436.046-.24c.194-.964-1.284-1.38-1.478-.41a185.511 185.511 0 00-2.142 12.846c-.102.799.905.938 1.345.43 1.262.513 4.09.569 4.09-.2a77.704 77.704 0 01.843-11.58c.159-.969-1.319-1.384-1.467-.41zM58.023 94.45l1.237-.44c0-.083 0-.16-.046-.241-.194-.964 1.284-1.38 1.483-.405a185.734 185.734 0 012.137 12.841c.107.805-.905.943-1.345.43-1.257.513-4.09.575-4.09-.2a78.426 78.426 0 00-.853-11.6c-.143-.943 1.334-1.364 1.477-.385z"/>
    <path fill="#000" d="M11.514 92.815a5.77 5.77 0 00-4.356 1.61.758.758 0 00-1.207-.205 6.666 6.666 0 00-2.015 5.25 6.673 6.673 0 002.71 4.925c1.493 1.133 3.753 1.969 5.594 1.231 1.728-.692 3.067-2.733 3.773-4.363 1.62-3.737-.057-8.233-4.5-8.448z"/>
    <path fill="#D6D6D6" d="M27.21 58.832l-2.726-1.976-6.646 9.22 2.727 1.975 6.646-9.219zM67.544 57.58l-3.174 1.116 3.755 10.734 3.175-1.117-3.756-10.733z"/>
    <path fill="#000" d="M67.63 53.42a4.754 4.754 0 00-3.616-1.79 4.737 4.737 0 00-3.685 1.642c-2.045 2.28-1.473 5.751.726 7.689a.812.812 0 001.309-.42 5.07 5.07 0 003.251-.241c2.72-1.174 3.917-4.424 2.015-6.88zM26.376 59.597a5.07 5.07 0 003.252.241.81.81 0 00.943.599.807.807 0 00.365-.178c2.199-1.948 2.797-5.419.721-7.69a4.746 4.746 0 00-3.682-1.641 4.734 4.734 0 00-3.613 1.79c-1.902 2.44-.711 5.72 2.014 6.88zM40.19 86.961a.607.607 0 00-.347-.825 7.982 7.982 0 00-7.986.784C29.3 88.801 28.6 91.785 31.085 94c1.794 1.599 5.44 3.029 7.5 1.142 2.188-1.999 3.655-5.68 1.605-8.181zM53.54 94.737c2.044 1.887 5.705.457 7.5-1.137 2.484-2.215 1.774-5.198-.772-7.085a7.989 7.989 0 00-7.986-.784.609.609 0 00-.348.825c-2.05 2.502-.583 6.182 1.605 8.181zM52.4 79.749c-.558-2.99-3.896-5.127-6.719-3.994-7.09 2.866-2.847 8.781-1.886 9.227 1.303.6 2.617 1.318 4.034 1.133a5.52 5.52 0 003.602-2.233 5.548 5.548 0 00.968-4.133zM52.149 51.38c-.281-.61-.563-1.22-.849-1.83a.772.772 0 00-1.022-.287c-1.534-.061-5.42.261-5.762.17a.765.765 0 00-.941.512l-.256 1.579a.797.797 0 00.537.943c.363.102 7.955.354 8.022-.062a.779.779 0 00.27-1.025z"/>
    <path fill="#EFEFEF" d="M68.238 1.092c-.588-.63-2.474 6.787-3.21 9.765-5.91-3.87-13.201-4.388-20.063-3.906-6.227.43-12.904.949-17.868 5.044-.435-1.435-3.625-10.452-3.83-10.252-2.305 2.27-3.742 28.63.762 37.34 1.84 3.552 4.372 6.879 8.13 8.509 4.56 1.973 10.046 2.373 14.892 3.322a6.296 6.296 0 001.534-.057c4.765-.835 9.305-2.594 13.748-4.465 4.09-1.722 5.915-4.495 7.74-8.443 3.963-8.478.716-34.11-1.835-36.857z"/>
    <path fill="#D6D6D6" d="M51.638 42.486c-11.647 1.087-24.357-2.61-29.966-12.754.46 3.804 1.222 7.177 2.373 9.366 1.84 3.552 4.371 6.879 8.129 8.51 4.56 1.973 10.046 2.373 14.893 3.32a6.296 6.296 0 001.534-.055c4.765-.836 9.305-2.594 13.748-4.465 4.09-1.723 5.915-4.496 7.74-8.443.93-2.005 1.452-4.973 1.682-8.371-4.32 6.981-10.977 12.041-20.133 12.892z"/>
    <path fill="#F4F4F4" d="M27.608 12.144a.555.555 0 00.154.61c.761.866 2.326 1.379 3.645 1.728 6.646 1.753 13.988 1.296 20.788.922a24.803 24.803 0 009.157-2.27c.986-.462 3.737-1.539 4.023-2.815.046-.215.077-.138-.133-.297-.077.302-.143.584-.204.835-5.91-3.87-13.201-4.388-20.062-3.906-5.905.41-12.21.897-17.061 4.434a5.064 5.064 0 00-.307.759z"/>
    <path fill="#D6D6D6" d="M27.276 11.278c-1.703 3.455-2.265 8.499-1.984 12.303.143 1.958 1.023 7.069 2.045 7.689a.78.78 0 001.13-.461l.067-.175a.78.78 0 00-.512-.948l-.127-.041c-.941-.302-1.345 1.179-.404 1.486l.122.036-.511-.943-.072.18 1.13-.462c-.286-.107-1.574-5.772-1.692-7.592-.511-7.443 1.247-11.939.808-11.052v-.02zM65.17 25.39a14.332 14.332 0 01-2.254 4.486c.399.05 1.615.39 1.534.738l.081-.052c.834-.512-1.022-.128-1.073-.112-.358.225-.26-.487-.056-.113l.056.113a.743.743 0 00.914.352.742.742 0 00.293-.198c.904-1.282 1.942-3.655 2.346-7.09.389-3.306-.7-9.904-1.779-13.44-.302-.944 2.152 8.621-.061 15.316z"/>
    <path fill="#000" d="M29.617 34.545a8.969 8.969 0 004.802 4.08 8.94 8.94 0 006.293-.091c.9-.364.511-1.85-.41-1.482a7.451 7.451 0 01-5.301.142 7.475 7.475 0 01-4.06-3.422c-.475-.867-1.799-.093-1.324.773z"/>
    <path fill="#000" d="M30.328 34.074c1.851-.15 3.71.164 5.412.91a11.252 11.252 0 014.338 3.37c.618.774 1.697-.323 1.084-1.087a12.658 12.658 0 00-4.832-3.711 12.625 12.625 0 00-6.002-1.02c-.982.072-.987 1.61 0 1.538z"/>
    <path fill="#EFEFEF" d="M63.908 54.22C62 52.236 49.822 51.626 47.036 51.518c-2.346-.087-16.974-1.025-18.17 2.276-3.318 9.228 7.403 34.023 21.836 27.815 3.701-1.589 10.465-9.59 12.74-15.891.819-2.363 2.317-9.566.466-11.498z"/>
    <path fill="#D6D6D6" d="M49.454 53.979a16.577 16.577 0 006.524-1.794c-3.691-.426-7.536-.61-8.962-.667-1.508-.056-8.083-.471-12.915.123 4.965 1.672 10.077 2.666 15.353 2.338z"/>
    <path fill="#F4F4F4" d="M50.293 67.738c5.787-2.148 9.862-7.69 11.994-13.503-3.38 2.517-7.07 4.286-11.498 4.758-6.498.686-12.991-.631-19.111-2.774 1.201 8.325 10.624 14.482 18.615 11.519z"/>
    <path fill="#D6D6D6" d="M49.797 73.218c-8.456 1.891-16.841-2.763-20.885-9.97 2.408 10.503 11.064 22.965 21.77 18.361 3.701-1.589 10.465-9.59 12.74-15.891a26.086 26.086 0 001.023-4.06c-3.364 5.562-8.4 10.165-14.648 11.56z"/>
    <path fill="#000" d="M20.195 65.918a3.996 3.996 0 00-2.907-2.146 3.978 3.978 0 00-3.443 1.085c-2.275 2.25-2.75 6.766-.291 9.048 2.085 1.932 5.536 1.763 6.958-.846 1.11-2.035 1.13-5.208-.317-7.141z"/>
    <path fill="#EFEFEF" d="M21.386 76.293c-.833-4.1-3.44-9.852-8.85-8.345-4.908 1.364-7.889 7.69-9.678 11.852C.726 84.808-.787 91.897.44 97.398c.455 2.02 2.934 3.414 4.846 3.829 2.552.624 5.206.708 7.792.246 3.466-.707 6.938-2.778 8.042-6.33 1.887-6.075 1.529-12.611.266-18.85z"/>
    <path fill="#000" d="M68.259 72.92c1.421 2.61 4.872 2.784 6.958.846 2.46-2.281 1.984-6.797-.291-9.043a3.986 3.986 0 00-3.443-1.087 3.983 3.983 0 00-2.907 2.143c-1.447 1.933-1.427 5.111-.317 7.141z"/>
    <path fill="#EFEFEF" d="M67.65 94.989c1.105 3.547 4.602 5.638 8.042 6.325 2.586.462 5.24.379 7.792-.241 1.912-.42 4.387-1.81 4.842-3.834 1.232-5.475-.281-12.57-2.419-17.573-1.784-4.188-4.77-10.488-9.673-11.856-5.414-1.508-8.016 4.229-8.855 8.345-1.257 6.228-1.61 12.78.271 18.834z"/>
    <path fill="#F4F4F4" d="M74.092 67.584c-2.464.2-4.177 2.091-5.296 4.342.002.048.002.096 0 .143.189 6.726 4.284 12.621 5.925 19.019a36.725 36.725 0 011.094 10.252c1.59.292 3.214.354 4.821.185 2.618-11.627 2.848-26.016-6.544-33.941z"/>
    <path fill="#D6D6D6" d="M86.347 93.958c-3.67 2.943-10.307 3.025-14.469 1.138a10.394 10.394 0 01-5.342-5.592c.192 1.86.566 3.697 1.114 5.485 1.105 3.547 4.602 5.639 8.042 6.325 2.586.462 5.24.38 7.792-.241 1.912-.42 4.387-1.81 4.842-3.834.43-2.083.553-4.218.363-6.336a8.152 8.152 0 01-2.342 3.055z"/>
    <path fill="#F4F4F4" d="M14.775 68c2.465.2 4.178 2.09 5.297 4.341v.139c-.184 6.73-4.28 12.625-5.92 19.023a36.69 36.69 0 00-1.094 10.252c-1.59.297-3.214.36-4.822.19-2.612-11.636-2.852-26.02 6.54-33.946z"/>
    <path fill="#D6D6D6" d="M2.52 94.374c3.671 2.937 10.308 3.024 14.47 1.138a10.394 10.394 0 005.342-5.593 29.103 29.103 0 01-1.115 5.48c-1.104 3.552-4.601 5.639-8.042 6.331a18.88 18.88 0 01-7.791-.231c-1.913-.415-4.392-1.81-4.842-3.83a21.714 21.714 0 01-.363-6.335 8.2 8.2 0 002.342 3.04z"/>
    <path fill="#EFEFEF" d="M55.13 84.331c-2.005-1.737-13.575-1.44-16.57-.128-2.853 1.25-.762 9.33 1.41 11.098 2.173 1.769 10.962 1.538 12.966 0 1.043-.794 4.765-8.735 2.193-10.97z"/>
    <path fill="#F4F4F4" d="M43.048 84.582c-1.211 2.871.946 4.101 3.66 4.06 3.069-.061 4.54-1.537 3.355-4.49a2.57 2.57 0 01-.19-.984 48.22 48.22 0 00-6.61.117c.037.444-.037.89-.215 1.297z"/>
    <path fill="#D6D6D6" d="M55.544 84.823c.782 5.188-3.763 9.058-9.157 8.966-2.633-.046-5.389-.943-7.158-2.994a6.891 6.891 0 01-1.472-5.91c-1.585 2.332.27 8.848 2.198 10.416 2.183 1.774 10.962 1.538 12.966 0 .992-.743 4.34-7.76 2.623-10.478z"/>
    <path fill="#000" d="M35.354 107.384c-1.825-2.512-5.113-3.968-7.444-1.318-1.984 2.266-2.93 6.408-.332 8.535a5.586 5.586 0 007.613-.697c1.446-1.758 1.415-4.788.163-6.52zM65.978 104.662c-7.786-4.747-12.055 5.264-8.819 8.991 2.659 3.076 6.406 1.902 8.738-.723 2.1-2.347 3.425-6.228.081-8.268z"/>
    <path fill="#EFEFEF" d="M44.787 149.685a10.836 10.836 0 00-1.657-2.563c-.884-7.228-1.682-14.481-2.76-21.684-.768-5.126-2.864-13.435-9.25-13.917-6.646-.513-9.713 7.258-10.705 12.554-1.534 7.956-1.284 16.404-1.698 24.457a.654.654 0 00.414.677.771.771 0 00.54.924.767.767 0 00.938-.514c1.094-4.142 8.799-5.178 12.337-5.178 3.303 0 6.534 1.066 8.737 3.373l.261 2.051a.83.83 0 001.452.43c0 .046.051.087.072.134.403.902 1.728.123 1.319-.744z"/>
    <path fill="#F4F4F4" d="M34.178 132.6c.092-6.608 1.253-13.411.24-19.993a6.854 6.854 0 00-3.297-1.117 7.511 7.511 0 00-1.877.082c-2.116 1.861-3.006 4.808-3.676 7.484a38.857 38.857 0 00-1.165 11.442c.24 4.972 1.237 9.858 2.234 14.743a26.288 26.288 0 016.304-.815c.47 0 .93.025 1.395.066a224.86 224.86 0 01-.158-11.892z"/>
    <path fill="#D6D6D6" d="M44.787 149.685c-2.26-4.916-7.598-7.002-12.751-6.741-4.208.211-11.626 1.415-12.91 6.28-.092.349-.69 6.49 2.015 8.202 3.272 2.05 18.293 1.599 21.253-.82 2.96-2.42 2.72-6.234 2.393-6.921z"/>
    <path fill="#BCBCBC" d="M24.244 154.688c-1.769-.512-3.747-1.261-5.205-2.511.113 1.937.593 4.265 2.102 5.213 3.272 2.05 18.293 1.599 21.253-.82a6.897 6.897 0 002.188-3.173c-6.554 2.086-13.66 3.234-20.338 1.291z"/>
    <path fill="#EFEFEF" d="M75.62 119.953c-1.308-4.849-5.035-12.902-11.329-10.324-2.975 1.22-5.322 4.137-7.214 6.623a47.202 47.202 0 00-5.833 10.324c-3.313 7.931-4.75 16.456-6.166 24.883a.777.777 0 00.204.687.605.605 0 00.369.769c2.93 1.307 5.961 1.625 9.136 1.722 2.556.082 5.48.236 7.618-1.42 1.958-1.538 2.556-3.957 3.425-6.151a9.728 9.728 0 013.544-4.565 9.698 9.698 0 015.5-1.746c.711-.117 2.46-14.476.747-20.802z"/>
    <path fill="#F4F4F4" d="M75.62 119.953c-1.308-4.849-5.035-12.902-11.329-10.324-2.975 1.22-5.322 4.137-7.214 6.623-.455.6-.89 1.22-1.308 1.846 2.944-2.102 6.585-3.189 10.092-1.759 3.758 1.538 6.135 5.296 6.968 9.135 1.16 5.178.512 10.442-.485 15.651a12.72 12.72 0 012.53-.364c.711-.123 2.46-14.482.747-20.808z"/>
    <path fill="#000" d="M58.427 27.584a84.148 84.148 0 00-12.025-.62 87.76 87.76 0 00-11.248.964c-3.251.512-10.803 2.517-10.828 3.255-.41 11.016 13.185 16.234 22.265 15.891 9.26-.328 20.809-5.639 21.514-16.137.051-.63-6.616-2.973-9.678-3.353z"/>
    <path fill="url(#paint9_linear)" d="M49.9 38.518c4.866 3.035 9.77-.364 13.543-3.532.715-.604-14.275 3.076-13.544 3.532z"/>
    <path fill="#D6D6D6" d="M54.782 150.341c2.71 0 4.908-2.914 4.908-6.51 0-3.595-2.197-6.51-4.908-6.51-2.71 0-4.908 2.915-4.908 6.51 0 3.596 2.197 6.51 4.908 6.51z"/>
    <path fill="#F4F4F4" d="M29.909 29.086a124.428 124.428 0 01-3.64 9.1c.275.429.574.843.894 1.24 1.636-3.548 2.761-7.31 4.52-10.765-.583.117-1.181.271-1.774.425zM46.898 26.964h-.511a84.79 84.79 0 00-4.418.215c-.03.072-1.175 0-1.216.082-2.95 5.547-4.857 10.545-7.802 16.701a27.464 27.464 0 005.394 2.087c2.93-6.326 6.017-12.585 8.553-19.085z" opacity=".18"/>
    <path fill="url(#paint10_linear)" d="M29.244 34.202c3.758 3.64 8.692 7.597 14.08 4.742.808-.43-14.796-5.434-14.08-4.742z"/>
    <path fill="#1A1A1A" d="M121.169 43.737a.85.85 0 00-.426-.638.853.853 0 00-.765-.039 123.742 123.742 0 00-23.712 14.302c-7.48 5.767-13.692 13.144-21.443 18.532-7.986 5.556-17.577 7.258-26.82 9.6a120.186 120.186 0 00-24.03 8.715c-8.737 4.347-16.76 10.048-23.375 17.26a.802.802 0 00.289 1.266.797.797 0 00.493.042c14.617-3.819 26.305 11.211 34.562 20.914 8.257 9.704 30.23 22.423 30.261 22.423-.24.727 25.656 10.882 26.238 10.201 22.552-26.431 34.935-71.003 45.804-104.062 1.483-4.506-17.04-4.614-15.91-9.227.792-3.163 1.13-6.654-1.166-9.29z"/>
    <path fill="#000" d="M164.33 162.147c.291 5.172-5.113 6.844-15.215 6.316-9.126-.472-16.754-3.25-17.046-8.423-.291-5.172 6.867-9.781 15.987-10.298 9.121-.518 15.977 7.238 16.274 12.405z"/>
    <path fill="#000" d="M155.015 163.849a52.907 52.907 0 01-22.634-2.312c1.534 4.214 8.533 6.5 16.734 6.926 10.123.512 15.506-1.144 15.215-6.316a7.826 7.826 0 00-.389-1.958c-1.968 2.788-5.782 3.337-8.926 3.66zM87.508 162.48c2.202 0 3.988-3.94 3.988-8.801 0-4.861-1.786-8.802-3.988-8.802-2.203 0-3.988 3.941-3.988 8.802s1.785 8.801 3.988 8.801zM113.561 161.303c2.16-.241 3.546-3.729 3.095-7.789-.451-4.06-2.569-7.156-4.73-6.914-2.161.241-3.546 3.729-3.095 7.789.451 4.06 2.569 7.156 4.73 6.914z"/>
    <path fill="#333" d="M102.687 96.178l-1.447-.513c0-.092.031-.184.051-.277.23-1.127-1.498-1.614-1.728-.476a201.886 201.886 0 00-2.5 15.014c-.123.939 1.058 1.097 1.57.513 1.472.615 7.669 3.527 7.669 2.625 0-4.542 1.022-12.134 1.692-16.625.189-1.148-5.138-1.404-5.307-.261zM131.936 95.901l1.447-.513c0-.092-.036-.184-.056-.276-.23-1.133 1.498-1.615 1.728-.482a201.947 201.947 0 012.5 15.02c.128.933-1.053 1.097-1.569.512-1.473.61-5.941 2.661-5.941 1.759 0-4.537-.23-11.376-.9-15.866-.169-1.143 2.618-1.297 2.791-.154z"/>
    <path fill="#000" d="M77.564 93.994a6.718 6.718 0 00-5.113 1.882.89.89 0 00-1.411-.241 7.808 7.808 0 00-2.362 6.131 7.825 7.825 0 00.937 3.231 7.796 7.796 0 002.207 2.535c1.744 1.323 4.387 2.297 6.54 1.436 2.014-.81 3.578-3.194 4.406-5.096 1.953-4.377-.01-9.627-5.204-9.878zM151.252 103.549c.838 1.907 2.393 4.291 4.412 5.101 2.147.861 4.791-.118 6.534-1.44a7.804 7.804 0 003.147-5.764 7.801 7.801 0 00-2.36-6.13.884.884 0 00-.768-.236.897.897 0 00-.648.478 6.717 6.717 0 00-5.087-1.882c-5.194.236-7.158 5.485-5.23 9.873z"/>
    <path fill="#333" d="M88.597 69.68l-8.308-8.37 12.29-12.647 3.344 5.608-7.326 15.41zM151.692 61.15l-8.089 7.177-4.248-14.215 3.604-4.167 8.733 11.206z"/>
    <path fill="#000" d="M143.153 47.94a5.541 5.541 0 00-6.588-1.614 5.544 5.544 0 00-1.939 1.44c-2.424 2.666-1.723 6.72.843 9.002a.95.95 0 001.534-.513 5.907 5.907 0 003.799-.282c3.19-1.364 4.581-5.167 2.351-8.033zM94.936 55.163a5.942 5.942 0 003.799.282.954.954 0 001.101.717c.16-.03.308-.1.433-.204 2.556-2.276 3.272-6.331.843-9.002a5.542 5.542 0 00-6.65-1.34 5.55 5.55 0 00-1.877 1.52c-2.224 2.84-.829 6.643 2.351 8.027zM111.087 87.145a.709.709 0 00-.409-.964 9.323 9.323 0 00-9.336.913c-2.975 2.205-3.803 5.69-.899 8.28 2.096 1.87 6.355 3.541 8.768 1.332 2.561-2.332 4.289-6.633 1.876-9.56zM126.691 96.24c2.413 2.209 6.672.512 8.768-1.333 2.909-2.563 2.076-6.075-.9-8.28a9.331 9.331 0 00-9.335-.912.705.705 0 00-.409.964c-2.398 2.922-.68 7.223 1.876 9.56z"/>
    <path fill="#333" d="M125.356 78.718c-.644-3.49-4.55-5.998-7.847-4.665-8.293 3.343-3.329 10.253-2.209 10.765 1.534.698 3.067 1.538 4.714 1.323a6.461 6.461 0 004.202-2.604 6.488 6.488 0 001.14-4.819z"/>
    <path fill="#232323" d="M125.08 45.557a405.64 405.64 0 01-.991-2.143.901.901 0 00-1.202-.333c-1.825-.072-6.34.307-6.738.2a.901.901 0 00-1.115.625l-.296 1.846a.92.92 0 00.623 1.102c.43.117 9.305.415 9.382-.067a.925.925 0 00.337-1.23z"/>
    <path fill="#333" d="M138.813 48.878c-2.229-2.322-16.468-3.034-19.745-3.162-2.746-.103-19.847-1.215-21.243 2.665-3.875 10.765 8.656 39.77 25.527 32.51 4.326-1.86 12.235-11.21 14.893-18.608.982-2.727 2.736-11.149.568-13.405z"/>
    <path fill="#000" d="M121.916 48.591a19.445 19.445 0 007.628-2.091c-4.315-.513-8.809-.718-10.476-.784-1.764-.067-9.453-.549-15.098.143 5.803 1.922 11.78 3.122 17.946 2.732z"/>
    <path fill="#494949" d="M122.897 64.677c6.764-2.512 11.529-8.96 14.024-15.783-3.957 2.942-8.267 5.008-13.446 5.557-7.592.81-15.184-.733-22.342-3.235 1.406 9.73 12.424 16.927 21.764 13.461z"/>
    <path fill="#000" d="M122.314 71.085c-9.882 2.21-19.683-3.23-24.412-11.657 2.812 12.278 12.935 26.846 25.45 21.464 4.326-1.861 12.235-11.211 14.893-18.608a30.912 30.912 0 001.166-4.742c-3.926 6.536-9.791 11.908-17.097 13.543zM87.712 62.54c-1.426-2.656-5.03-3.589-7.423-1.24-2.664 2.629-3.216 7.909-.343 10.575 2.439 2.26 6.473 2.05 8.134-.99 1.299-2.363 1.325-6.08-.368-8.345z"/>
    <path fill="#333" d="M89.108 74.679c-.977-4.819-4.024-11.519-10.348-9.74-5.736 1.594-9.203 8.966-11.314 13.84-2.495 5.85-4.264 14.144-2.822 20.547.51 2.363 3.425 3.993 5.66 4.48a22.12 22.12 0 009.11.287c4.05-.831 8.109-3.255 9.397-7.402 2.214-7.075 1.79-14.733.317-22.012z"/>
    <path fill="#000" d="M143.895 70.742c1.667 3.05 5.7 3.25 8.139.99 2.873-2.672 2.316-7.947-.342-10.576-2.393-2.358-5.998-1.415-7.424 1.24-1.692 2.25-1.667 5.962-.373 8.346z"/>
    <path fill="#333" d="M143.189 96.532c1.289 4.147 5.343 6.566 9.397 7.397 3.024.54 6.126.444 9.111-.282 2.234-.513 5.113-2.117 5.66-4.48 1.441-6.403-.328-14.697-2.823-20.546-2.091-4.89-5.577-12.262-11.314-13.841-6.324-1.764-9.371 4.936-10.348 9.74-1.472 7.274-1.881 14.932.317 22.012z"/>
    <path fill="#494949" d="M150.72 64.498c-2.883.236-4.888 2.445-6.191 5.08.002.053.002.106 0 .159.22 7.869 5.005 14.758 6.922 22.238a42.938 42.938 0 011.284 11.979c1.854.344 3.748.419 5.623.221 3.073-13.595 3.339-30.409-7.638-39.677z"/>
    <path fill="#000" d="M165.046 95.347c-4.295 3.44-12.051 3.538-16.918 1.333a12.14 12.14 0 01-6.242-6.536c.224 2.174.661 4.32 1.303 6.408 1.289 4.147 5.343 6.567 9.397 7.397 3.024.54 6.126.444 9.111-.282 2.234-.512 5.113-2.117 5.66-4.48.5-2.437.643-4.934.424-7.412a9.495 9.495 0 01-2.735 3.572z"/>
    <path fill="#494949" d="M81.378 64.985c2.883.23 4.882 2.445 6.186 5.075v.164c-.215 7.864-5.005 14.753-6.923 22.232a42.763 42.763 0 00-1.278 11.985 19.604 19.604 0 01-5.624.216c-3.072-13.595-3.338-30.409 7.639-39.672z"/>
    <path fill="#000" d="M67.047 95.814c4.3 3.435 12.056 3.532 16.918 1.333a12.146 12.146 0 006.242-6.541 33.837 33.837 0 01-1.298 6.407c-1.289 4.148-5.348 6.572-9.403 7.403-3.022.538-6.123.44-9.105-.287-2.24-.487-5.113-2.117-5.665-4.48a25.403 25.403 0 01-.42-7.408 9.512 9.512 0 002.731 3.573z"/>
    <path fill="#333" d="M128.552 84.07c-2.342-2.05-15.849-1.692-19.372-.154-3.333 1.461-.889 10.909 1.646 12.97 2.536 2.06 12.818 1.778 15.159 0 1.222-.913 5.573-10.202 2.567-12.816z"/>
    <path fill="#494949" d="M114.426 84.393c-1.411 3.358 1.104 4.808 4.284 4.747 3.579-.072 5.307-1.784 3.921-5.25a2.853 2.853 0 01-.225-1.153 56.284 56.284 0 00-7.725.139c.037.518-.05 1.039-.255 1.517z"/>
    <path fill="#000" d="M129.038 84.65c.91 6.063-4.402 10.59-10.706 10.482-3.068-.056-6.299-1.107-8.354-3.496-1.769-2.05-2.127-4.49-1.718-6.915-1.851 2.727.317 10.345 2.556 12.175 2.556 2.05 12.817 1.778 15.159 0 1.156-.867 5.041-9.069 3.063-12.247zM105.433 111.024c-2.132-2.938-5.982-4.64-8.692-1.538-2.321 2.645-3.43 7.489-.394 9.975 2.557 2.107 6.775 1.774 8.901-.815 1.683-2.055 1.652-5.598.185-7.622zM141.231 107.845c-9.1-5.551-14.09 6.152-10.307 10.504 3.109 3.588 7.485 2.23 10.225-.841 2.429-2.742 3.993-7.294.082-9.663z"/>
    <path fill="#333" d="M116.46 160.45a12.373 12.373 0 00-1.937-2.988c-1.023-8.453-1.969-16.917-3.231-25.349-.89-5.967-3.339-15.707-10.808-16.276-7.782-.595-11.335 8.484-12.511 14.681-1.769 9.299-1.503 19.157-1.984 28.589a.76.76 0 00.48.79c-.296 1.117 1.432 1.594 1.729.476 1.278-4.839 10.281-6.048 14.423-6.054 3.86 0 7.633 1.251 10.225 3.942.102.805.199 1.615.302 2.42a.973.973 0 001.238.814.972.972 0 00.464-.301l.082.153c.46 1.051 2.009.129 1.528-.897z"/>
    <path fill="#494949" d="M104.062 140.504c.108-7.73 1.463-15.676.276-23.37a8.07 8.07 0 00-3.854-1.307 8.808 8.808 0 00-2.194.097c-2.47 2.174-3.517 5.639-4.3 8.745a45.745 45.745 0 00-1.36 13.38c.282 5.813 1.447 11.524 2.613 17.234a30.717 30.717 0 017.372-.953c.548 0 1.089.03 1.626.082-.177-4.634-.237-9.27-.179-13.908z"/>
    <path fill="#000" d="M116.46 160.45c-2.643-5.741-8.88-8.202-14.903-7.879-4.918.252-13.594 1.656-15.092 7.346-.108.41-.808 7.587 2.357 9.571 3.824 2.404 21.381 1.871 24.842-.959 3.461-2.829 3.18-7.253 2.796-8.079z"/>
    <path fill="#000" d="M92.441 166.325c-2.045-.605-4.376-1.476-6.084-2.937.138 2.26.7 4.982 2.465 6.09 3.824 2.404 21.381 1.871 24.842-.959a8.04 8.04 0 002.556-3.706c-7.659 2.435-15.972 3.783-23.779 1.512z"/>
    <path fill="#333" d="M152.504 125.7c-1.533-5.67-5.884-15.087-13.241-12.072-3.482 1.425-6.227 4.839-8.431 7.745a54.593 54.593 0 00-6.82 12.067c-3.876 9.269-5.558 19.234-7.214 29.092a.913.913 0 00.24.799.714.714 0 00.031.537c.08.168.224.298.399.36 3.425 1.538 6.968 1.902 10.685 2.02 2.976.092 6.406.272 8.901-1.661 2.291-1.773 2.96-4.613 4.003-7.176a11.393 11.393 0 014.145-5.338 11.344 11.344 0 016.433-2.039c.829-.133 2.874-16.922.869-24.334z"/>
    <path fill="#333" d="M137.3 126.52c-.297-2.758-1.637-7.469-5.287-6.608-1.728.405-3.257 1.794-4.499 2.989a25.844 25.844 0 00-4.09 5.126c-2.485 4.04-4.003 8.561-5.501 13.036a.443.443 0 00.056.39.34.34 0 00.133.451 12.947 12.947 0 004.836 1.727c1.381.267 2.966.6 4.275-.118 1.196-.656 1.717-1.937 2.392-3.05a5.365 5.365 0 012.323-2.183 5.342 5.342 0 013.148-.477c.399-.005 2.607-7.679 2.214-11.283z"/>
    <path fill="#494949" d="M152.504 125.7c-1.533-5.67-5.884-15.087-13.241-12.072-3.482 1.425-6.227 4.839-8.431 7.745-.537.703-1.022 1.425-1.534 2.153 3.446-2.45 7.7-3.721 11.8-2.05 4.392 1.784 7.158 6.192 8.15 10.678 1.355 6.054.593 12.21-.568 18.3.97-.242 1.962-.385 2.96-.425.824-.128 2.869-16.917.864-24.329z"/>
    <path fill="#000" d="M128.143 161.235c3.168 0 5.736-3.406 5.736-7.608 0-4.201-2.568-7.607-5.736-7.607-3.168 0-5.737 3.406-5.737 7.607 0 4.202 2.569 7.608 5.737 7.608z"/>
    <path fill="#D6D6D6" d="M106.992 68.722a1.347 1.347 0 012.073.209c.148.222.227.483.228.75a1.095 1.095 0 01-.389.856h.511v.512h-1.487a1.31 1.31 0 01-.951-.394 1.371 1.371 0 010-1.912l.015-.021zm1.518.359a.8.8 0 00-.593-.241.784.784 0 00-.583.24.853.853 0 00-.235.621.84.84 0 00.235.615.79.79 0 00.583.241.803.803 0 00.774-.524.836.836 0 00.055-.332.864.864 0 00-.236-.62zM112.105 68.353v1.538a1.128 1.128 0 01-.312.84 1.126 1.126 0 01-1.534 0 1.125 1.125 0 01-.307-.84v-1.538h.511v1.538a.68.68 0 00.159.512.513.513 0 00.394.16.511.511 0 00.393-.16.681.681 0 00.159-.513v-1.537h.537zM112.856 68.353h1.023c.156-.003.312.021.46.072.107.035.202.099.276.184a.84.84 0 01.123.226.82.82 0 01.035.225.543.543 0 01-.347.559c.132.031.248.11.327.22.082.119.123.261.117.405 0 .513-.322.76-.976.76h-1.023l-.015-2.651zm.511.513v.569h.558a.353.353 0 00.265-.088.29.29 0 00.082-.194c0-.19-.117-.288-.347-.288h-.558zm0 1.025v.64h.645a.398.398 0 00.286-.087.33.33 0 00-.005-.461.381.381 0 00-.281-.092h-.645zM116.307 70.511h.317v.492h-1.155v-.492h.317v-1.666h-.317v-.492h1.155v.492h-.317v1.666zM118.434 68.845v2.158h-.522v-2.158h-.726v-.492h1.969v.492h-.721zM120.607 68.63v2.373h-.297V68.63h-.818v-.277h1.928v.277h-.813zM122.32 69.527h1.293v.277h-1.293v.922h1.375v.277h-1.672v-2.65h1.672v.277h-1.375v.897zM125.51 68.327a1.29 1.29 0 01.997.441l-.195.174a1.079 1.079 0 00-.802-.338 1.019 1.019 0 00-.747.308 1.125 1.125 0 000 1.537 1.026 1.026 0 00.747.308 1.058 1.058 0 00.802-.338l.195.18a1.36 1.36 0 01-.966.434 1.351 1.351 0 01-.982-.394 1.357 1.357 0 01.205-2.076c.22-.15.48-.23.746-.23M129.145 71.003h-.297V69.8h-1.406v1.204h-.296v-2.65h.296v1.169h1.406v-1.17h.297v2.651z"/>
    <path fill="#333" d="M146.656 14.061c-1.284-2.732-15.338-10.185-30.768-10.821-11.56-.477-38.636-2.927-40.39.19-1.871 3.352 36.688 42.921 44.393 41.717 11.953-1.866 33.881-15.886 26.765-31.086z"/>
    <path fill="#494949" d="M127.969 10.903c-3.978-1.789-8.231-3.132-12.342-4.582a100.071 100.071 0 00-13.375-3.85l-.72-.041c4.182 2.291 8.313 4.67 12.52 6.905 8.181 4.367 16.831 7.771 25.247 11.688a1.81 1.81 0 011.053 1.168 29.99 29.99 0 004.673-5.536c-5.916.477-11.892-3.43-17.056-5.752z"/>
    <path fill="#000" d="M143.69 24.857c-4.039 3.88-9.151 7.09-14.714 8.12-6.513 1.21-11.892-1.184-17.592-4.101-13.038-6.7-24.444-16.014-35.937-25.016.567 5.367 36.99 42.46 44.48 41.297 10.409-1.625 28.39-12.482 28.119-25.308a36.462 36.462 0 01-4.356 5.008z"/>
    <path fill="#000" d="M112.048 16.404c1.411 1.794 15.558 10.97 35.681 6.664.653-3.03.275-6.192-1.073-8.981a3.479 3.479 0 00-.87-1.025c-5.368.558-27.833 2.83-33.738 3.342z"/>
    <path fill="#F4F4F4" d="M130.515 23.73l.332.05c-1.861-2.85-3.757-5.68-5.378-8.673l-1.754.174c2.199 2.87 4.694 5.506 6.8 8.448zM133.818 14.271l-3.645.37c1.896 3.25 4.064 6.34 6.063 9.53 1.069 0 2.163 0 3.282-.052-1.901-3.281-3.701-6.623-5.7-9.848z" opacity=".18"/>
    <path fill="#000" d="M102.595 26.226c3.168 0 5.736-3.406 5.736-7.608 0-4.201-2.568-7.607-5.736-7.607-3.168 0-5.736 3.406-5.736 7.607 0 4.202 2.568 7.608 5.736 7.608z"/>
    <path fill="#494949" d="M100.126 15.539c.34-.427.355-.982.033-1.24-.322-.258-.86-.122-1.2.305-.34.427-.355.982-.033 1.24.322.258.86.122 1.2-.305z"/>
    <path fill="url(#paint11_linear)" d="M124.928 62.797l-1.912-1.897-.048-7.747c0-.089-.072-.153-.16-.153l-11.656.064c-.08 0-.152.073-.152.161l.064 11.718c0 .088.072.152.16.152l7.712-.048 1.912 1.897a.145.145 0 00.112.048l3.888-.024c.088 0 .152-.073.152-.16l-.024-3.907a.156.156 0 00-.048-.104zM119 64.742l-7.624.04-.064-11.404 11.352-.065.04 7.66c0 .04.016.08.048.112l1.688 1.68h-.336l-1.864-1.849-.04-6.968c0-.088-.072-.152-.16-.152l-10.104.048c-.088 0-.152.072-.152.16l.056 10.159c0 .088.072.153.16.153l6.936-.04 1.864 1.848v.338l-1.688-1.68a.19.19 0 00-.112-.04zm4.328-1.977l-1.864-1.849-.032-6.188c0-.089-.072-.153-.16-.153l-8.552.048c-.088 0-.152.073-.152.161l.048 8.591c0 .089.072.153.16.153l6.16-.032 1.864 1.848v.338l-1.688-1.68a.157.157 0 00-.112-.048l-6.84.04-.064-9.837 9.8-.056.04 6.871c0 .04.016.08.048.113l1.688 1.68h-.344zm-.776 0l-1.864-1.849-.032-5.4c0-.089-.072-.153-.16-.153l-7 .04c-.088 0-.152.072-.152.16l.04 7.033c0 .088.072.153.16.153l5.376-.033 1.864 1.849v.337l-1.688-1.68a.158.158 0 00-.112-.047l-6.064.032-.048-8.278 8.24-.048.032 6.091c0 .04.016.08.048.113l1.688 1.68h-.328zm-.776.008l-1.864-1.849-.024-4.629c0-.088-.072-.153-.16-.153l-5.448.032c-.088 0-.152.073-.152.161l.032 5.473c0 .089.072.153.16.153l4.6-.024 1.864 1.848v.338l-1.688-1.68a.157.157 0 00-.112-.048l-5.288.032-.04-6.719 6.688-.04.032 5.313c0 .04.016.08.048.112l1.688 1.68h-.336zm-.776.008l-1.864-1.849-.024-3.841c0-.089-.072-.153-.16-.153l-3.888.024c-.088 0-.152.072-.152.16l.024 3.907c0 .088.072.152.16.152l3.824-.024 1.864 1.849v.337l-1.688-1.68a.158.158 0 00-.112-.048l-4.512.024-.032-5.151 5.136-.032.024 4.532c0 .04.016.08.048.113l1.688 1.68H121zm-2.176-1.945l-3.576.024-.024-3.593 3.576-.024.024 3.593zm5.864 5.826l-3.576.025-.024-3.593 3.576-.024.024 3.592z"/>
  </g>
  <defs>
    <linearGradient id="paint0_linear" x1="164.166" x2="200.722" y1="67.256" y2="67.256" gradientUnits="userSpaceOnUse">
      <stop stop-color="#A5C6FF"/>
      <stop offset="1" stop-color="#AAB4FF"/>
    </linearGradient>
    <linearGradient id="paint1_linear" x1="6100.05" x2="7084.39" y1="5714.5" y2="5714.5" gradientUnits="userSpaceOnUse">
      <stop stop-color="#A5C6FF"/>
      <stop offset="1" stop-color="#AAB4FF"/>
    </linearGradient>
    <linearGradient id="paint2_linear" x1="-12322.8" x2="-12484.8" y1="32533" y2="33987.2" gradientUnits="userSpaceOnUse">
      <stop stop-color="#A5C6FF"/>
      <stop offset="1" stop-color="#AAB4FF"/>
    </linearGradient>
    <linearGradient id="paint3_linear" x1="6553.24" x2="7247.82" y1="2441.9" y2="2441.9" gradientUnits="userSpaceOnUse">
      <stop stop-color="#A5C6FF"/>
      <stop offset="1" stop-color="#AAB4FF"/>
    </linearGradient>
    <linearGradient id="paint4_linear" x1="8064.55" x2="9401.87" y1="10204.2" y2="10204.2" gradientUnits="userSpaceOnUse">
      <stop stop-color="#A5C6FF"/>
      <stop offset="1" stop-color="#AAB4FF"/>
    </linearGradient>
    <linearGradient id="paint5_linear" x1="11257.5" x2="13172.3" y1="11856.9" y2="11856.9" gradientUnits="userSpaceOnUse">
      <stop stop-color="#A5C6FF"/>
      <stop offset="1" stop-color="#AAB4FF"/>
    </linearGradient>
    <linearGradient id="paint6_linear" x1="16650.3" x2="22309.1" y1="-1305.81" y2="-1830.36" gradientUnits="userSpaceOnUse">
      <stop stop-color="#A5C6FF"/>
      <stop offset="1" stop-color="#AAB4FF"/>
    </linearGradient>
    <linearGradient id="paint7_linear" x1="152.565" x2="172.863" y1="19.515" y2="17.634" gradientUnits="userSpaceOnUse">
      <stop stop-color="#A57FFF"/>
      <stop offset="1" stop-color="#AACEFF"/>
    </linearGradient>
    <linearGradient id="paint8_linear" x1="198.161" x2="183.733" y1="34.012" y2="34.3" gradientUnits="userSpaceOnUse">
      <stop stop-color="#93278F"/>
      <stop offset="1" stop-color="#0071BC"/>
    </linearGradient>
    <linearGradient id="paint9_linear" x1="1375.98" x2="1737.44" y1="382.922" y2="382.922" gradientUnits="userSpaceOnUse">
      <stop stop-color="#93278F"/>
      <stop offset="1" stop-color="#0071BC"/>
    </linearGradient>
    <linearGradient id="paint10_linear" x1="-4784.67" x2="-5183.69" y1="409.799" y2="381.941" gradientUnits="userSpaceOnUse">
      <stop stop-color="#93278F"/>
      <stop offset="1" stop-color="#0071BC"/>
    </linearGradient>
    <linearGradient id="paint11_linear" x1="125.529" x2="117.223" y1="66.497" y2="59.292" gradientUnits="userSpaceOnUse">
      <stop stop-color="#225ED6"/>
      <stop offset=".999" stop-color="#A82FE8"/>
    </linearGradient>
    <clipPath id="clip0">
      <path fill="#fff" d="M0 0h244v171H0z"/>
    </clipPath>
  </defs>
</svg>
